{
  "accessors": [
    {
      "bufferView": 2,
      "componentType": 5126,
      "count": 26337,
      "max": [
        129.92608642578125,
        425.29034423828125,
        115.9522933959961
      ],
      "min": [
        -122.79891204833984,
        -0.1423647701740265,
        -118.95939636230469
      ],
      "type": "VEC3"
    },
    {
      "bufferView": 2,
      "byteOffset": 316044,
      "componentType": 5126,
      "count": 26337,
      "max": [
        0.9957306385040283,
        0.9998835921287537,
        0.998734176158905
      ],
      "min": [
        -0.9999528527259827,
        -0.9998450875282288,
        -0.9994170665740967
      ],
      "type": "VEC3"
    },
    {
      "bufferView": 3,
      "componentType": 5126,
      "count": 26337,
      "max": [
        0.9999319314956665,
        0.9999015927314758,
        0.9999437928199768,
        -1.0
      ],
      "min": [
        -0.9999140501022339,
        -0.9999033808708191,
        -0.9999438524246216,
        -1.0
      ],
      "type": "VEC4"
    },
    {
      "bufferView": 1,
      "componentType": 5126,
      "count": 26337,
      "max": [
        1.0,
        1.0
      ],
      "min": [
        0.0,
        -1.0
      ],
      "type": "VEC2"
    },
    {
      "bufferView": 1,
      "byteOffset": 210696,
      "componentType": 5126,
      "count": 26337,
      "max": [
        1.0,
        1.0
      ],
      "min": [
        0.0,
        -1.0
      ],
      "type": "VEC2"
    },
    {
      "bufferView": 1,
      "byteOffset": 421392,
      "componentType": 5126,
      "count": 26337,
      "max": [
        1.0,
        1.0
      ],
      "min": [
        0.0,
        -1.0
      ],
      "type": "VEC2"
    },
    {
      "bufferView": 0,
      "componentType": 5125,
      "count": 127272,
      "type": "SCALAR"
    },
    {
      "bufferView": 2,
      "byteOffset": 632088,
      "componentType": 5126,
      "count": 19301,
      "max": [
        49.20248031616211,
        53.395076751708984,
        49.17882537841797
      ],
      "min": [
        -47.64198684692383,
        -0.03573208302259445,
        -50.894378662109375
      ],
      "type": "VEC3"
    },
    {
      "bufferView": 2,
      "byteOffset": 863700,
      "componentType": 5126,
      "count": 19301,
      "max": [
        0.9999618530273438,
        0.6968792080879211,
        0.9999907612800598
      ],
      "min": [
        -0.9999954104423523,
        -0.43048298358917236,
        -0.9999935030937195
      ],
      "type": "VEC3"
    },
    {
      "bufferView": 1,
      "byteOffset": 632088,
      "componentType": 5126,
      "count": 19301,
      "max": [
        -0.0,
        2.0
      ],
      "min": [
        -1.0,
        1.0
      ],
      "type": "VEC2"
    },
    {
      "bufferView": 0,
      "byteOffset": 509088,
      "componentType": 5125,
      "count": 56367,
      "type": "SCALAR"
    },
    {
      "bufferView": 2,
      "byteOffset": 1095312,
      "componentType": 5126,
      "count": 65532,
      "max": [
        154.6553192138672,
        430.5274658203125,
        147.3607177734375
      ],
      "min": [
        -157.82339477539063,
        183.3174591064453,
        -143.52334594726563
      ],
      "type": "VEC3"
    },
    {
      "bufferView": 2,
      "byteOffset": 1881696,
      "componentType": 5126,
      "count": 65532,
      "max": [
        0.9999585151672363,
        0.987615168094635,
        0.9999924302101135
      ],
      "min": [
        -0.99998539686203,
        -0.9999869465827942,
        -0.99996417760849
      ],
      "type": "VEC3"
    },
    {
      "bufferView": 1,
      "byteOffset": 786496,
      "componentType": 5126,
      "count": 65532,
      "max": [
        1.0,
        1.0
      ],
      "min": [
        0.0,
        0.0
      ],
      "type": "VEC2"
    },
    {
      "bufferView": 1,
      "byteOffset": 1310752,
      "componentType": 5126,
      "count": 65532,
      "max": [
        1.0,
        1.0
      ],
      "min": [
        0.0,
        0.0
      ],
      "type": "VEC2"
    },
    {
      "bufferView": 0,
      "byteOffset": 734556,
      "componentType": 5125,
      "count": 165666,
      "type": "SCALAR"
    },
    {
      "bufferView": 2,
      "byteOffset": 2668080,
      "componentType": 5126,
      "count": 53648,
      "max": [
        154.6553192138672,
        430.5274658203125,
        147.3607177734375
      ],
      "min": [
        -157.82339477539063,
        183.3174591064453,
        -143.52334594726563
      ],
      "type": "VEC3"
    },
    {
      "bufferView": 2,
      "byteOffset": 3311856,
      "componentType": 5126,
      "count": 53648,
      "max": [
        0.9999970197677612,
        0.9999979138374329,
        0.9999526143074036
      ],
      "min": [
        -0.9999972581863403,
        -0.9999980926513672,
        -0.9997949004173279
      ],
      "type": "VEC3"
    },
    {
      "bufferView": 1,
      "byteOffset": 1835008,
      "componentType": 5126,
      "count": 53648,
      "max": [
        1.0,
        1.0
      ],
      "min": [
        0.0,
        0.0
      ],
      "type": "VEC2"
    },
    {
      "bufferView": 1,
      "byteOffset": 2264192,
      "componentType": 5126,
      "count": 53648,
      "max": [
        1.0,
        1.0
      ],
      "min": [
        0.0,
        0.0
      ],
      "type": "VEC2"
    },
    {
      "bufferView": 0,
      "byteOffset": 1397220,
      "componentType": 5125,
      "count": 185454,
      "type": "SCALAR"
    }
  ],
  "asset": {
    "extras": {
      "author": "tojamerlin (https://sketchfab.com/tojamerlin)",
      "license": "CC-BY-4.0 (http://creativecommons.org/licenses/by/4.0/)",
      "source": "https://sketchfab.com/3d-models/bamboo-tree-d0161434cf6844a8bc6eaeb0c0692ed0",
      "title": "bamboo tree"
    },
    "generator": "Sketchfab-12.68.0",
    "version": "2.0"
  },
  "bufferViews": [
    {
      "buffer": 0,
      "byteLength": 2139036,
      "name": "floatBufferViews",
      "target": 34963
    },
    {
      "buffer": 0,
      "byteLength": 2693376,
      "byteOffset": 2139036,
      "byteStride": 8,
      "name": "floatBufferViews",
      "target": 34962
    },
    {
      "buffer": 0,
      "byteLength": 3955632,
      "byteOffset": 4832412,
      "byteStride": 12,
      "name": "floatBufferViews",
      "target": 34962
    },
    {
      "buffer": 0,
      "byteLength": 421392,
      "byteOffset": 8788044,
      "byteStride": 16,
      "name": "floatBufferViews",
      "target": 34962
    }
  ],
  "buffers": [
    {
      "byteLength": 9209436,
      "uri": "scene.bin"
    }
  ],
  "images": [
    {
      "uri": "textures/Trunk_baseColor.png"
    },
    {
      "uri": "textures/Trunk_normal.png"
    },
    {
      "uri": "textures/Mf_Grass_baseColor.png"
    },
    {
      "uri": "textures/Leaf_baseColor.png"
    }
  ],
  "materials": [
    {
      "doubleSided": true,
      "name": "Trunk",
      "normalTexture": {
        "index": 1,
        "texCoord": 1
      },
      "pbrMetallicRoughness": {
        "baseColorTexture": {
          "index": 0
        },
        "metallicFactor": 0.0,
        "roughnessFactor": 0.9524317153998911
      }
    },
    {
      "doubleSided": true,
      "name": "Mf_Grass",
      "pbrMetallicRoughness": {
        "baseColorTexture": {
          "index": 2
        },
        "metallicFactor": 0.0,
        "roughnessFactor": 0.6
      }
    },
    {
      "doubleSided": true,
      "name": "Leaf",
      "pbrMetallicRoughness": {
        "baseColorTexture": {
          "index": 3
        },
        "metallicFactor": 0.0,
        "roughnessFactor": 0.9524317153998911
      }
    }
  ],
  "meshes": [
    {
      "name": "bamboo_tree_Trunk_0",
      "primitives": [
        {
          "attributes": {
            "NORMAL": 1,
            "POSITION": 0,
            "TANGENT": 2,
            "TEXCOORD_0": 3,
            "TEXCOORD_1": 4,
            "TEXCOORD_2": 5
          },
          "indices": 6,
          "material": 0,
          "mode": 4
        }
      ]
    },
    {
      "name": "bamboo_tree_Mf_Grass_0",
      "primitives": [
        {
          "attributes": {
            "NORMAL": 8,
            "POSITION": 7,
            "TEXCOORD_0": 9
          },
          "indices": 10,
          "material": 1,
          "mode": 4
        }
      ]
    },
    {
      "name": "bamboo_tree_Leaf_0",
      "primitives": [
        {
          "attributes": {
            "NORMAL": 12,
            "POSITION": 11,
            "TEXCOORD_0": 13,
            "TEXCOORD_1": 14
          },
          "indices": 15,
          "material": 2,
          "mode": 4
        }
      ]
    },
    {
      "name": "bamboo_tree_Leaf_0",
      "primitives": [
        {
          "attributes": {
            "NORMAL": 17,
            "POSITION": 16,
            "TEXCOORD_0": 18,
            "TEXCOORD_1": 19
          },
          "indices": 20,
          "material": 2,
          "mode": 4
        }
      ]
    }
  ],
  "nodes": [
    {
      "children": [
        1
      ],
      "matrix": [
        1.0,
        0.0,
        0.0,
        0.0,
        0.0,
        2.220446049250313e-16,
        -1.0,
        0.0,
        0.0,
        1.0,
        2.220446049250313e-16,
        0.0,
        0.0,
        0.0,
        0.0,
        1.0
      ],
      "name": "Sketchfab_model"
    },
    {
      "children": [
        2
      ],
      "matrix": [
        1.0,
        0.0,
        0.0,
        0.0,
        0.0,
        0.0,
        1.0,
        0.0,
        0.0,
        -1.0,
        0.0,
        0.0,
        0.0,
        0.0,
        0.0,
        1.0
      ],
      "name": "Bamboo Tree.fbx"
    },
    {
      "children": [
        3
      ],
      "name": "RootNode"
    },
    {
      "children": [
        4,
        5,
        6,
        7
      ],
      "name": "bamboo_tree"
    },
    {
      "mesh": 0,
      "name": "bamboo_tree_Trunk_0"
    },
    {
      "mesh": 1,
      "name": "bamboo_tree_Mf_Grass_0"
    },
    {
      "mesh": 2,
      "name": "bamboo_tree_Leaf_0"
    },
    {
      "mesh": 3,
      "name": "bamboo_tree_Leaf_0"
    }
  ],
  "samplers": [
    {
      "magFilter": 9729,
      "minFilter": 9987,
      "wrapS": 10497,
      "wrapT": 10497
    }
  ],
  "scene": 0,
  "scenes": [
    {
      "name": "Sketchfab_Scene",
      "nodes": [
        0
      ]
    }
  ],
  "textures": [
    {
      "sampler": 0,
      "source": 0
    },
    {
      "sampler": 0,
      "source": 1
    },
    {
      "sampler": 0,
      "source": 2
    },
    {
      "sampler": 0,
      "source": 3
    }
  ]
}
