<?xml version="1.0" standalone="no"?>
<!DOCTYPE svg PUBLIC "-//W3C//DTD SVG 20010904//EN"
 "http://www.w3.org/TR/2001/REC-SVG-20010904/DTD/svg10.dtd">
<svg version="1.0" xmlns="http://www.w3.org/2000/svg"
 width="532.000000pt" height="254.000000pt" viewBox="0 0 532.000000 154.000000"
 preserveAspectRatio="xMidYMid meet">

<g transform="translate(0.000000,154.000000) scale(0.100000,-0.100000)"
fill="#000000" stroke="none">
<path d="M0 1245 l0 -296 38 7 c20 4 59 15 85 25 26 11 57 19 68 19 17 0 18
-3 8 -22 -14 -26 -134 -148 -146 -148 -4 0 -18 17 -30 38 l-22 37 -1 -269 c0
-251 1 -268 18 -261 30 12 146 35 177 35 17 0 47 -8 66 -18 20 -10 114 -38
210 -62 l174 -43 315 62 c173 34 336 67 363 72 47 11 73 29 41 29 -16 0 -15 2
3 19 12 11 23 25 24 30 3 8 15 8 39 1 74 -21 391 2 410 30 3 4 67 10 143 14
l137 7 0 -23 c0 -13 -9 -42 -19 -65 -11 -23 -17 -44 -13 -47 3 -3 -2 -6 -11
-6 -9 0 -21 -8 -26 -18 -9 -15 -10 -15 -11 -1 0 9 -7 20 -16 23 -15 6 -15 4
-3 -11 8 -9 9 -14 2 -10 -14 9 -45 -2 -37 -14 3 -5 -2 -6 -12 -2 -14 5 -13 8
7 20 l24 14 -23 -7 c-38 -10 -72 -12 -67 -3 3 4 1 10 -5 14 -5 3 -10 2 -10 -3
0 -4 -21 -9 -46 -9 -26 -1 -56 -6 -69 -13 -18 -10 -45 -7 -145 14 -142 30
-168 32 -151 13 6 -8 7 -17 1 -23 -5 -5 14 -33 51 -71 l59 -61 183 -36 c101
-20 203 -36 227 -36 35 0 91 22 269 106 124 58 233 112 242 120 35 31 39 18
39 -120 l0 -135 -77 -29 c-84 -32 -219 -68 -403 -106 l-115 -24 1678 -1 1677
-1 0 770 0 770 -2660 0 -2660 0 0 -295z m930 223 c0 -4 -4 -8 -10 -8 -5 0 -10
5 -10 10 0 6 -3 9 -7 8 -15 -3 -43 14 -37 23 6 10 64 -20 64 -33z m-190 -14
c87 -26 130 -60 162 -131 15 -35 28 -68 28 -76 0 -7 16 -37 35 -67 50 -80 49
-126 -6 -185 -41 -44 -74 -60 -63 -30 9 23 -3 18 -63 -25 -31 -22 -58 -38 -61
-36 -2 3 12 20 31 39 26 27 33 41 30 60 -3 14 0 28 6 31 6 4 11 15 11 25 0 16
-8 18 -52 17 -48 -1 -53 -3 -52 -23 0 -16 -7 -24 -25 -27 -37 -8 -121 -4 -121
5 0 4 25 30 55 57 54 49 55 52 55 105 0 39 -6 61 -20 80 -43 55 -123 42 -163
-26 -14 -23 -41 -57 -61 -75 -38 -34 -51 -67 -44 -107 3 -14 4 -25 3 -25 -8 0
-85 111 -85 123 0 44 34 117 77 166 29 33 43 56 35 59 -19 6 -14 26 11 41 65
41 186 52 277 25z m807 -46 c-3 -7 -5 -2 -5 12 0 14 2 19 5 13 2 -7 2 -19 0
-25z m244 -18 c52 -15 103 -52 107 -78 2 -12 -1 -22 -7 -22 -6 0 -11 -7 -11
-15 0 -8 4 -15 10 -15 5 0 21 -17 35 -39 18 -27 24 -46 20 -63 -5 -19 -2 -27
11 -32 10 -4 21 -1 25 6 14 23 32 -8 37 -64 5 -66 -11 -128 -40 -155 -21 -19
-30 -20 -88 -13 -36 4 -59 8 -52 9 7 0 24 12 37 26 32 31 32 75 1 112 -13 15
-33 47 -44 69 -23 44 -37 54 -82 54 -33 0 -44 -12 -58 -64 -10 -34 -8 -43 19
-92 17 -30 35 -57 40 -60 15 -9 10 -24 -8 -24 -10 0 -26 -7 -37 -15 -16 -12
-23 -12 -48 1 -28 15 -29 16 -13 34 20 22 12 40 -16 40 -11 0 -30 5 -41 11
-24 13 -44 -7 -27 -27 7 -9 5 -16 -9 -23 -17 -9 -22 -7 -31 21 -15 41 -17 36
34 83 l46 41 -12 53 c-13 60 -38 91 -73 91 -25 0 -66 -41 -66 -65 0 -19 -36
-46 -53 -39 -21 8 -37 -24 -39 -83 -1 -46 -2 -46 -5 -9 -3 22 -2 49 1 62 8 32
56 85 69 77 7 -3 9 -2 5 2 -10 11 35 90 76 134 64 69 186 99 287 71z m769
-406 c0 -156 0 -157 -46 -318 -26 -88 -53 -168 -61 -178 -8 -9 -27 -19 -41
-23 -15 -3 -82 -31 -150 -61 -67 -30 -124 -54 -126 -54 -4 0 32 144 129 514
39 149 45 183 36 204 -7 13 -10 26 -8 28 3 3 95 18 260 43 4 0 7 -69 7 -155z
m-785 96 c3 -6 -1 -7 -9 -4 -18 7 -21 14 -7 14 6 0 13 -4 16 -10z m20 -60 c-3
-6 -18 -10 -33 -9 -26 0 -26 1 -4 9 12 5 22 17 22 27 1 17 1 17 11 0 5 -9 7
-22 4 -27z m-810 -163 l27 -52 -25 30 c-14 17 -36 48 -48 70 -21 38 -21 39 -2
22 11 -9 32 -41 48 -70z m2022 17 c8 -21 -19 -46 -40 -38 -17 6 -23 35 -10 47
12 13 44 7 50 -9z m341 -10 c4 -27 -26 -40 -46 -20 -21 20 -8 48 20 44 14 -2
24 -11 26 -24z m482 -119 l0 -135 -25 0 -25 0 0 135 0 135 25 0 25 0 0 -135z
m1030 0 l0 -135 -25 0 c-14 0 -25 5 -25 10 0 7 -6 7 -19 0 -34 -18 -80 -12
-106 15 -36 35 -36 115 0 150 26 27 72 33 106 15 17 -10 19 -7 19 35 0 41 2
45 25 45 l25 0 0 -135z m-2010 100 c43 -22 60 -53 60 -110 0 -86 -48 -125
-155 -125 l-55 0 0 125 0 125 60 0 c35 0 74 -7 90 -15z m610 -10 c0 -18 5 -25
20 -25 13 0 20 -7 20 -20 0 -13 -7 -20 -20 -20 -18 0 -20 -7 -20 -60 0 -53 2
-60 20 -60 13 0 20 -7 20 -20 0 -15 -7 -20 -26 -20 -53 0 -64 15 -64 86 0 48
-4 66 -15 70 -8 4 -15 15 -15 25 0 10 7 19 15 19 9 0 15 9 15 25 0 20 5 25 25
25 20 0 25 -5 25 -25z m665 0 c51 -51 13 -125 -65 -125 l-40 0 0 -50 c0 -47
-2 -50 -25 -50 l-25 0 0 125 0 125 65 0 c57 0 69 -3 90 -25z m-1125 -125 l0
-100 -25 0 -25 0 0 100 0 100 25 0 25 0 0 -100z m179 88 c11 -10 14 -10 18 0
3 6 16 12 29 12 24 0 24 0 24 -110 0 -126 -11 -160 -60 -180 -17 -7 -44 -10
-62 -6 -31 6 -78 41 -78 58 0 12 44 10 57 -3 6 -6 26 -9 44 -7 26 2 36 9 43
30 11 31 2 48 -16 30 -7 -7 -28 -12 -48 -12 -49 0 -81 34 -87 94 -5 40 -2 48
25 76 33 32 86 41 111 18z m171 -88 l0 -100 -25 0 -25 0 0 100 0 100 25 0 25
0 0 -100z m311 90 c13 -7 19 -7 19 0 0 5 11 10 25 10 l25 0 0 -100 0 -100 -25
0 c-14 0 -25 5 -25 10 0 7 -6 7 -19 0 -77 -41 -155 31 -131 120 16 61 77 89
131 60z m650 0 c13 -7 19 -7 19 0 0 5 11 10 25 10 l25 0 0 -100 0 -100 -25 0
c-14 0 -25 5 -25 10 0 7 -6 7 -19 0 -78 -41 -160 37 -131 125 19 57 79 82 131
55z m169 0 c0 -7 6 -7 19 0 36 19 78 12 100 -16 17 -22 21 -41 21 -100 0 -72
-1 -74 -25 -74 -24 0 -25 2 -25 68 0 72 -10 92 -45 92 -35 0 -45 -20 -45 -92
0 -66 -1 -68 -25 -68 l-25 0 0 100 0 100 25 0 c14 0 25 -5 25 -10z m559 -2
c11 -10 14 -10 18 0 3 6 16 12 29 12 24 0 24 -1 24 -100 0 -99 0 -100 -24
-100 -13 0 -26 6 -29 13 -4 10 -7 10 -18 0 -7 -7 -30 -13 -50 -13 -29 0 -43 7
-63 31 -55 65 -16 169 63 169 20 0 43 -6 50 -12z m251 -15 l22 -28 -22 -3
c-12 -2 -27 1 -33 7 -16 16 -57 14 -57 -3 0 -8 17 -20 38 -26 72 -24 95 -73
50 -104 -44 -31 -138 -10 -138 30 0 8 10 14 25 14 14 0 25 -4 25 -10 0 -5 14
-10 30 -10 43 0 38 26 -7 40 -73 24 -96 73 -51 104 37 26 93 21 118 -11z
m-4511 3 c45 -24 100 -92 113 -141 10 -39 16 -45 38 -45 14 0 41 -11 60 -25
39 -29 37 -28 46 -13 4 6 3 8 -4 4 -6 -3 -14 -1 -18 5 -7 12 12 9 63 -7 14 -5
15 -4 4 4 -12 9 -10 12 12 17 15 4 33 3 40 -2 16 -13 109 -44 115 -39 2 3 -21
12 -52 22 -54 17 -74 34 -38 34 35 -1 226 -56 229 -67 3 -7 -10 -14 -29 -18
-113 -19 -429 -78 -513 -95 -98 -19 -154 -25 -143 -15 3 3 81 21 174 40 93 18
158 34 144 34 -14 1 -70 -8 -124 -19 -55 -11 -101 -18 -103 -16 -4 4 12 8 172
42 64 14 75 19 55 24 -16 5 -2 7 38 6 42 -1 65 3 71 12 7 11 15 11 47 -3 33
-14 46 -14 82 -4 23 6 45 16 48 20 8 13 -30 11 -43 -2 -11 -11 -50 -6 -127 18
-12 3 -16 1 -12 -6 7 -10 -27 -14 -121 -15 -13 0 -23 -4 -23 -9 0 -4 -10 -5
-21 -2 -15 5 -19 4 -15 -4 14 -23 -13 -10 -33 15 -14 18 -21 22 -21 11 0 -8 6
-18 13 -20 7 -4 6 -6 -4 -6 -9 -1 -23 9 -31 21 -13 19 -15 20 -21 4 -4 -10 -3
-15 3 -11 5 3 14 -4 20 -15 16 -29 -5 -26 -35 6 -24 26 -30 9 -6 -20 8 -9 9
-16 3 -16 -6 0 -22 15 -37 33 -16 20 -23 25 -19 12 4 -11 11 -26 17 -32 6 -9
6 -13 -2 -13 -6 0 -16 9 -23 20 -7 11 -19 20 -26 20 -7 0 -11 4 -7 9 3 5 0 13
-6 17 -8 5 -9 3 -4 -6 6 -10 3 -12 -11 -7 -18 7 -18 6 -2 -6 10 -8 15 -17 11
-21 -4 -4 1 -4 11 0 13 5 17 4 13 -3 -4 -6 -1 -14 5 -16 8 -3 5 -6 -5 -6 -11
-1 -33 14 -50 32 -22 24 -27 26 -18 9 16 -31 5 -42 -14 -15 -10 14 -22 19 -35
16 -16 -4 -18 -8 -9 -19 6 -8 7 -14 3 -14 -5 0 -15 9 -22 21 -8 12 -9 18 -3
14 6 -3 11 -1 11 5 0 6 4 9 9 5 5 -3 13 0 17 6 4 7 3 9 -4 5 -6 -3 -20 7 -32
24 -12 17 -26 27 -32 24 -7 -4 -8 -2 -4 4 11 18 -32 34 -86 31 -44 -3 -53 0
-69 23 l-19 26 32 27 c47 40 112 65 192 74 108 13 135 12 165 -3z m1060 -75
c11 -7 21 -15 21 -19 0 -12 -205 -72 -248 -72 -31 0 -45 5 -56 22 -9 12 -16
26 -16 30 0 18 89 51 154 57 72 7 106 3 145 -18z m-770 -30 c7 -5 9 -11 5 -14
-5 -3 -15 1 -22 9 -14 16 -5 18 17 5z m-519 -171 c7 -13 7 -20 1 -20 -6 0 -15
9 -21 20 -7 13 -7 20 -1 20 6 0 15 -9 21 -20z m35 10 c3 -5 8 -19 10 -31 3
-16 1 -18 -9 -10 -16 14 -28 51 -16 51 5 0 12 -4 15 -10z m70 0 c3 -5 1 -10
-4 -10 -6 0 -11 5 -11 10 0 6 2 10 4 10 3 0 8 -4 11 -10z m270 -20 c8 -13 -5
-13 -25 0 -13 8 -13 10 2 10 9 0 20 -4 23 -10z m-255 -10 c0 -5 -2 -10 -4 -10
-3 0 -8 5 -11 10 -3 6 -1 10 4 10 6 0 11 -4 11 -10z m57 -17 c-7 -6 -46 10
-41 18 3 5 14 3 24 -3 11 -7 18 -13 17 -15z m120 1 c-3 -3 -12 -4 -19 -1 -8 3
-5 6 6 6 11 1 17 -2 13 -5z m-92 -36 c6 -4 2 -8 -7 -8 -10 0 -18 7 -18 17 0 9
3 12 8 7 4 -5 12 -12 17 -16z m1325 -102 c0 -9 -30 -14 -35 -6 -4 6 3 10 14
10 12 0 21 -2 21 -4z"/>
<path d="M828 1278 c-9 -7 -18 -29 -21 -50 -6 -38 8 -73 64 -156 16 -24 29
-50 29 -58 0 -9 13 -2 35 20 43 43 44 72 6 120 -16 20 -33 51 -36 69 -8 35
-31 67 -50 67 -6 0 -18 -6 -27 -12z m32 -88 c0 -5 -2 -10 -4 -10 -3 0 -8 5
-11 10 -3 6 -1 10 4 10 6 0 11 -4 11 -10z m29 -39 c9 -16 7 -18 -14 -18 -21 0
-22 2 -12 18 7 11 13 19 14 19 1 0 7 -8 12 -19z"/>
<path d="M2447 798 c-14 -15 -28 -47 -36 -85 -12 -56 -12 -65 3 -88 22 -34 36
-29 64 25 17 35 22 58 20 104 -3 68 -16 79 -51 44z m18 -67 c3 -5 1 -12 -5
-16 -5 -3 -10 1 -10 9 0 18 6 21 15 7z"/>
<path d="M4726 754 c-34 -33 -10 -104 34 -104 46 0 68 71 32 103 -23 21 -46
22 -66 1z"/>
<path d="M2744 807 c-3 -8 -4 -45 -2 -83 l3 -69 38 1 c53 2 77 27 77 80 0 34
-5 47 -26 63 -30 24 -82 28 -90 8z"/>
<path d="M4020 785 c0 -33 2 -35 34 -35 26 0 36 5 41 20 9 28 -11 50 -46 50
-26 0 -29 -3 -29 -35z"/>
<path d="M3106 748 c-9 -12 -16 -29 -16 -38 0 -27 30 -60 55 -60 26 0 55 33
55 62 0 24 -35 58 -59 58 -11 0 -27 -10 -35 -22z"/>
<path d="M3595 756 c-39 -28 -13 -106 35 -106 44 0 66 72 32 103 -22 21 -42
21 -67 3z"/>
<path d="M4252 763 c-7 -3 -17 -16 -22 -29 -22 -56 38 -107 80 -69 49 44 2
122 -58 98z"/>
<path d="M4967 752 c-38 -42 -4 -111 48 -98 15 4 30 17 35 31 23 61 -42 113
-83 67z"/>
<path d="M1758 423 c7 -3 16 -2 19 1 4 3 -2 6 -13 5 -11 0 -14 -3 -6 -6z"/>
<path d="M1808 413 c7 -3 16 -2 19 1 4 3 -2 6 -13 5 -11 0 -14 -3 -6 -6z"/>
<path d="M103 357 c-64 -10 -81 -22 -41 -30 14 -3 8 -5 -15 -6 -35 -1 -37 1
-27 19 9 16 8 20 -5 20 -13 0 -15 -25 -15 -180 l0 -180 723 2 c397 0 706 3
687 5 -396 39 -737 87 -980 137 -201 41 -335 77 -322 85 12 7 -13 42 -43 59
-23 13 -31 12 82 16 34 1 65 5 69 8 10 11 -6 28 -27 28 -10 0 -19 4 -19 9 0 5
16 9 36 8 31 -1 38 -6 46 -29 7 -20 15 -27 27 -24 9 2 31 7 49 11 44 9 40 20
-15 39 -51 18 -115 19 -210 3z"/>
<path d="M1293 354 c-3 -8 -3 -20 0 -28 4 -10 -4 -18 -21 -25 -15 -5 -21 -10
-14 -10 7 -1 10 -6 7 -12 -4 -6 -42 -9 -96 -8 -49 1 -92 -1 -96 -5 -3 -3 11
-6 33 -6 21 0 50 -3 64 -7 l25 -7 -25 -7 c-18 -5 -11 -7 27 -8 37 -1 54 3 61
14 7 14 22 13 138 -6 99 -16 135 -18 157 -10 38 15 34 31 -8 31 -28 0 -40 7
-66 39 -35 44 -62 57 -132 64 -35 3 -50 1 -54 -9z"/>
<path d="M526 231 c7 -7 99 -41 111 -41 2 0 3 4 3 9 0 5 -21 16 -47 25 -52 18
-82 21 -67 7z"/>
<path d="M1563 122 c-18 -2 -33 -7 -33 -13 0 -10 159 -13 184 -3 52 20 -25 28
-151 16z"/>
</g>
</svg>
